<?xml version="1.0" encoding="utf-8"?>
<!-- Generator: Adobe Illustrator 27.5.0, SVG Export Plug-In . SVG Version: 6.00 Build 0)  -->
<svg version="1.1" id="Layer_1" xmlns="http://www.w3.org/2000/svg" xmlns:xlink="http://www.w3.org/1999/xlink" x="0px" y="0px"
	 viewBox="0 0 1500 750" style="enable-background:new 0 0 1500 750;" xml:space="preserve">
<rect style="fill:#FFFFFF;" width="1500" height="750"/>
<g>
	<g>
		<path style="fill:#F2E7CE;" d="M180.193,556.468c9.728,24.674,10.94,104.157-13.773,128.001h1207.818
			c0.731-14.433,6.224-31.999,6.288-47.912c0.163-40.059-17.83-66-4.82-106.764c14.124-44.251,31.463-78.751,24.921-127.413
			c-7.541-56.099-44.588-93.579-103.085-102.612c-40.588-6.267-106.928-4.817-133.976-43.148
			c-22.772-32.269-1.579-86.397-17.066-122.781c-18.805-44.184-79.302-55.782-122.902-49.861
			c-56.878,7.725-108.165,35.138-163.174,49.869c-57.947,15.517-116.301,18.654-174.784,4.734
			c-75.695-18.016-181.372-104.23-249.42-28.587c-34.105,37.912-56.321,93.774-65.871,142.477
			c-9.7,49.469-25.734,85.904-77.693,101.898c-48.536,14.94-52.274-13.925-99.117-9.483c-47.284,4.483-70.071,70.384-52.169,113.823
			C158.956,501.38,163.556,514.268,180.193,556.468z"/>
		<g>
			<g>
				<path style="fill:#A69F95;" d="M86.38,690.405c0,13.67,297.114,24.745,663.625,24.745c366.501,0,663.616-11.075,663.616-24.745
					c0-13.665-297.115-24.739-663.616-24.739c-188.283,0-358.26,2.924-479.037,7.618c-15.268,0.594-29.754,1.212-43.394,1.865
					c-0.09,0-0.189,0-0.279,0.009c-37.618,1.788-68.763,3.784-92.117,5.915c-2.426,0.225-4.762,0.448-7.025,0.672
					C101.146,684.445,86.38,687.36,86.38,690.405z"/>
				<path style="fill:#726C65;" d="M1201.09,692.557c0,5.187-234.491,9.39-523.748,9.39s-523.748-4.203-523.748-9.39
					c0-5.186,234.49-9.391,523.748-9.391S1201.09,687.37,1201.09,692.557z"/>
				<g>
					<rect x="963.054" y="66.85" style="fill:#D8BEA9;" width="308.586" height="607.055"/>
					<rect x="979.184" y="83.923" style="fill:#56504A;" width="276.33" height="589.981"/>
					<polygon style="fill:#706963;" points="1206.279,110.311 1204.026,673.904 983.123,673.904 979.298,673.81 978.615,673.791 
						979.298,83.923 					"/>
					<g>
						<path style="fill:#3A3633;" d="M1194.905,396.111c0,5.937-3.589,10.75-8.017,10.75h-8.019c-4.428,0-8.017-4.814-8.017-10.75
							v-10.753c0-5.937,3.589-10.75,8.017-10.75h8.019c4.428,0,8.017,4.813,8.017,10.75V396.111z"/>
						<path style="fill:#56504A;" d="M1189.322,390.735c0,3.143-1.9,5.691-4.244,5.691h-39.61c-2.345,0-4.245-2.548-4.245-5.691l0,0
							c0-3.143,1.9-5.691,4.245-5.691h39.61C1187.422,385.044,1189.322,387.592,1189.322,390.735L1189.322,390.735z"/>
					</g>
					<g>
						<polygon style="fill:#D8BEA9;" points="1168.594,184.717 1031.058,184.717 1031.058,147.962 1168.594,154.551 						"/>
						<g>
							<path style="fill:#FFFFFF;" d="M1043.906,158.563c1.403-0.173,3.234-0.231,5.164-0.163c3.208,0.113,5.288,0.745,6.918,1.99
								c1.754,1.315,2.858,3.355,2.858,6.23c0,3.116-1.179,5.246-2.808,6.551c-1.78,1.407-4.487,2.053-7.796,2.011
								c-1.98-0.025-3.383-0.166-4.336-0.302V158.563z M1047.741,172.183c0.327,0.079,0.852,0.087,1.329,0.095
								c3.458,0.082,5.714-1.727,5.714-5.638c0.026-3.4-2.03-5.262-5.313-5.364c-0.852-0.027-1.403,0.03-1.73,0.093V172.183z"/>
							<path style="fill:#FFFFFF;" d="M1065.186,159.085v16.143l-3.835-0.05v-16.227L1065.186,159.085z"/>
							<path style="fill:#FFFFFF;" d="M1068.494,159.415c1.229-0.148,3.058-0.226,5.089-0.155c2.507,0.088,4.261,0.503,5.464,1.438
								c1.003,0.784,1.554,1.904,1.554,3.358c0,2.016-1.528,3.363-2.983,3.822v0.071c1.179,0.474,1.829,1.546,2.255,3.01
								c0.527,1.793,1.054,3.864,1.379,4.477l-3.91-0.05c-0.276-0.451-0.677-1.754-1.179-3.72c-0.45-1.991-1.177-2.55-2.731-2.607
								l-1.153-0.025v6.286l-3.785-0.049V159.415z M1072.28,166.425l1.504,0.038c1.905,0.048,3.033-0.819,3.033-2.209
								c0-1.462-1.052-2.225-2.807-2.304c-0.927-0.029-1.454,0.025-1.73,0.064V166.425z"/>
							<path style="fill:#FFFFFF;" d="M1093.409,169.03l-6.217-0.138v3.717l6.944,0.118v2.876l-10.779-0.139v-15.743l10.428,0.364
								v2.877l-6.593-0.204v3.252l6.217,0.163V169.03z"/>
							<path style="fill:#FFFFFF;" d="M1109.151,175.369c-0.703,0.306-2.281,0.624-4.337,0.599c-5.84-0.074-8.848-3.439-8.848-7.844
								c0-5.278,4.112-8.07,9.225-7.889c1.98,0.07,3.484,0.484,4.161,0.822l-0.777,2.7c-0.777-0.317-1.855-0.621-3.208-0.663
								c-3.034-0.095-5.39,1.497-5.39,4.919c0,3.08,2.005,5.053,5.414,5.11c1.153,0.019,2.432-0.185,3.184-0.442L1109.151,175.369z"
								/>
							<path style="fill:#FFFFFF;" d="M1115.265,163.693l-4.538-0.14v-2.875l12.984,0.454v2.821l-4.612-0.142v12.116l-3.835-0.05
								V163.693z"/>
							<path style="fill:#FFFFFF;" d="M1140.481,168.81c0,4.749-3.359,7.587-8.297,7.525c-5.014-0.063-7.946-3.425-7.946-7.653
								c0-4.449,3.234-7.66,8.222-7.483C1137.648,161.381,1140.481,164.812,1140.481,168.81z M1128.274,168.712
								c0,2.889,1.554,4.951,4.11,4.993c2.582,0.042,4.061-2.052,4.061-4.885c0-2.617-1.453-4.911-4.085-4.993
								C1129.778,163.746,1128.274,165.844,1128.274,168.712z"/>
							<path style="fill:#FFFFFF;" d="M1142.987,161.998c1.229-0.128,3.058-0.192,5.089-0.121c2.507,0.088,4.261,0.467,5.464,1.308
								c1.003,0.706,1.554,1.712,1.554,3.015c0,1.807-1.528,3.01-2.983,3.418v0.063c1.179,0.428,1.829,1.39,2.255,2.703
								c0.527,1.608,1.054,3.465,1.379,4.015l-3.91-0.051c-0.276-0.405-0.677-1.573-1.179-3.337
								c-0.45-1.787-1.177-2.289-2.731-2.344l-1.153-0.025v5.641l-3.785-0.049V161.998z M1146.772,168.302l1.504,0.038
								c1.905,0.048,3.032-0.727,3.032-1.974c0-1.311-1.052-1.999-2.807-2.075c-0.927-0.029-1.454,0.018-1.73,0.052V168.302z"/>
						</g>
					</g>
				</g>
			</g>
			<g>
				<g>
					<g>
						<g>
							<path style="fill:#151D2B;" d="M367.854,540.091c8.462,1.318,32.464,4.768,35.306,6.797
								c3.445,2.459,11.34,18.373,17.99,11.085C434.233,543.636,392.972,540.681,367.854,540.091z"/>
							<path style="fill:#151D2B;" d="M345.363,541.151c-8.462,1.316-32.462,4.764-35.306,6.795
								c-3.446,2.459-11.34,18.371-17.988,11.085C278.984,544.692,320.245,541.737,345.363,541.151z"/>
							<g>
								<g>
									<path style="fill:#5E646B;" d="M337.334,664.378l0.346-6.967l1.803-36.589l4.19-84.791h8.065l5.403,84.791l2.329,36.589
										l0.333,5.225c0,3.206-7.19,11.034-10.37,11.034C346.254,673.67,337.334,667.583,337.334,664.378z"/>
									<polygon style="fill:#151D2B;" points="338.517,587.723 340.111,546.978 355.725,546.978 357.783,587.723 									"/>
								</g>
								<path style="fill:#151D2B;" d="M283.396,683.601c0,5.153-4.377,9.325-9.775,9.325c-5.399,0-9.775-4.172-9.775-9.325
									c0-5.148,4.376-9.323,9.775-9.323C279.019,674.278,283.396,678.453,283.396,683.601z"/>
								<path style="fill:#151D2B;" d="M375.888,683.601c0,5.153-4.377,9.325-9.775,9.325c-5.4,0-9.776-4.172-9.776-9.325
									c0-5.148,4.376-9.323,9.776-9.323C371.511,674.278,375.888,678.453,375.888,683.601z"/>
								<path style="fill:#151D2B;" d="M442.901,683.601c0,5.153-4.375,9.325-9.775,9.325c-5.399,0-9.775-4.172-9.775-9.325
									c0-5.148,4.377-9.323,9.775-9.323C438.525,674.278,442.901,678.453,442.901,683.601z"/>
								<polygon style="fill:#5E646B;" points="447.575,682.791 260.25,682.791 262.233,672.909 354.409,664.549 447.575,674.431 
																	"/>
								<polygon style="fill:#9FA4AA;" points="349.135,664.549 348.556,664.727 348.556,682.791 376.446,682.791 376.446,674.431 
																	"/>
							</g>
							<g>
								<path style="fill:#151D2B;" d="M288.653,521.82c0.311,0.249,0.628,0.507,0.956,0.771
									c10.928,8.83,31.428,25.849,33.283,26.84c1.116,0.602,3.791,1.206,7.131,1.762c8.1,1.348,20.132,2.383,23.504,2.164
									c8.698-0.568,16.443-3.408,28.76-8.153c3.706-1.424,10.656-13.272,17.31-23.384H288.653z"/>
								<path style="fill:#222E44;" d="M371.798,521.82c5.052,10.185-15.276,24.735-30.726,28.038
									c-3.605,0.765-7.308,1.171-11.049,1.336c8.1,1.348,20.132,2.383,23.504,2.164c8.698-0.568,16.443-3.408,28.76-8.153
									c3.706-1.424,10.656-13.272,17.31-23.384H371.798z"/>
							</g>
						</g>
						<g>
							<g>
								<g>
									<path style="fill:#4C2231;" d="M390.209,507.594H263.444c-0.126-53.391-25.657-196.471-16.543-208.515
										c2.045-2.698,12.046-6.914,23.638-10.149c0-0.005,0.006-0.005,0.011-0.005c8.466-2.364,17.781-4.201,25.471-4.546
										c12.535-0.557,17.315-0.577,24.475-0.744c0.936-0.016,1.909-0.04,2.953-0.071c12.317-0.329,21.61,0.714,28.89,2.491
										c0.006,0.005,0.011,0.005,0.017,0.005c8.26,3.345,13.262,7.624,18.113,10.817c0.158,0.102,0.321,0.203,0.468,0.299
										c10.391,6.707,15.247,86.658,17.33,140.171C388.948,454.942,389.747,487.451,390.209,507.594z"/>
								</g>
								<g>
									<path style="fill:#7A384D;" d="M287.99,507.594c0.599-52.105-27.275-205.766-18.016-218.097
										c0.147-0.193,0.332-0.385,0.566-0.567c0-0.005,0.006-0.005,0.011-0.005c8.466-2.364,17.781-4.201,25.471-4.546
										c12.535-0.557,17.315-0.577,24.475-0.744c0.936-0.016,1.909-0.04,2.953-0.071c12.317-0.329,21.61,0.714,28.89,2.491
										c0.006,0.005,0.011,0.005,0.017,0.005c8.26,3.345,13.262,7.624,18.113,10.817c0.158,0.102,0.321,0.203,0.468,0.299
										c10.391,6.707,15.247,86.658,17.33,140.171c0.679,17.595,1.479,50.105,1.94,70.247H287.99z"/>
								</g>
							</g>
							<g>
								<g>
									<g>
										<rect x="419.128" y="445.169" style="fill:#151D2B;" width="13.689" height="63.34"/>
										<rect x="423.129" y="445.169" style="fill:#151D2B;" width="13.689" height="63.34"/>
									</g>
									<g>
										<path style="fill:#7A384D;" d="M466.995,446.496c0,4.972-2.229,9.006-4.979,9.006h-51.293c-2.751,0-4.98-4.033-4.98-9.006
											v-0.9c0-4.975,2.229-9.008,4.98-9.008h51.293c2.75,0,4.979,4.033,4.979,9.008V446.496z"/>
										<path style="fill:#4C2231;" d="M430.353,446.496c0,4.972-1.541,9.006-3.441,9.006h-35.433
											c-1.901,0-3.441-4.033-3.441-9.006v-0.9c0-4.975,1.539-9.008,3.441-9.008h35.433c1.899,0,3.441,4.033,3.441,9.008V446.496
											z"/>
									</g>
								</g>
								<g>
									<path style="fill:#91415E;" d="M459.978,512.42c0,6.977-6.214,12.635-13.882,12.635H303.109
										c-7.669,0-13.882-5.658-13.882-12.635v-1.262c0-6.98,6.213-12.636,13.882-12.636h142.987
										c7.667,0,13.882,5.657,13.882,12.636V512.42z"/>
									<path style="fill:#4C2231;" d="M318.473,512.42c0,6.977-2.543,12.635-5.677,12.635h-58.457
										c-3.136,0-5.676-5.658-5.676-12.635v-1.262c0-6.98,2.54-12.636,5.676-12.636h58.457c3.134,0,5.677,5.657,5.677,12.636
										V512.42z"/>
								</g>
								<g>
									<g>
										<rect x="271.918" y="451.076" style="fill:#151D2B;" width="13.69" height="48.065"/>
										<rect x="275.921" y="451.076" style="fill:#151D2B;" width="13.689" height="48.065"/>
									</g>
									<g>
										<path style="fill:#7A384D;" d="M333.053,452.403c0,4.972-2.712,9.006-6.057,9.006h-62.403
											c-3.346,0-6.059-4.034-6.059-9.006v-0.899c0-4.975,2.713-9.008,6.059-9.008h62.403c3.346,0,6.057,4.032,6.057,9.008
											V452.403z"/>
										<path style="fill:#4C2231;" d="M271.297,452.403c0,4.972-1.109,9.006-2.477,9.006h-25.511
											c-1.37,0-2.478-4.034-2.478-9.006v-0.899c0-4.975,1.107-9.008,2.478-9.008h25.511c1.369,0,2.477,4.032,2.477,9.008
											V452.403z"/>
									</g>
								</g>
							</g>
						</g>
					</g>
					<g>
						<g>
							<g>
								<g>
									<path style="fill:#E8A273;" d="M517.765,682.473c-0.032-0.005-0.809-6.176-0.784-6.449
										c0.119-1.296,0.216-2.599,0.282-3.874c0.182-3.716,0.075-7.238-0.636-9.948l12.108-0.535
										c-0.284,1.564,0.268,5.032,1.134,8.505c0.402,1.613,0.873,3.227,1.363,4.647c-0.177,0.009-0.37,0.02-0.574,0.028
										C529.679,674.895,517.766,682.466,517.765,682.473z"/>
									<path style="fill:#131616;" d="M552.302,691.974c-1.143,4.965-37.594,2.018-37.6,2.009c-0.01-0.041-0.065-0.59-0.059-0.788
										v-0.06c0-0.166,0.01-0.342,0.027-0.527c-0.006-0.008,0-0.018,0-0.023c0.017-0.215,0.049-15.324,2.579-18.623
										c7.252,5.915,6.61-6.91,12.668-6.549c5.104,0.305-0.515,4.509,8.448,14.186c0.017,0.017,0.033,0.039,0.049,0.056
										c0.266,0.291,0.552,0.586,0.85,0.884c0.012,0.012,0.022,0.017,0.033,0.028c9.392,2.247,12.105,5.395,12.831,7.418
										C552.552,691.156,552.307,691.945,552.302,691.974z"/>
								</g>
							</g>
							<g>
								<g>
									<path style="fill:#E8A273;" d="M374.953,684.43c0.031-0.013,1.452-23.323,2.321-27.052l-12.059,1.733
										c0.194,2.01-0.559,6.711-1.626,11.479c-0.497,2.216-1.061,4.447-1.633,6.425c0.177-0.025,0.369-0.051,0.572-0.079
										C363.501,676.807,374.953,684.421,374.953,684.43z"/>
									<path style="fill:#131616;" d="M377.602,693.336v0.06c0.005,0.198-0.049,0.747-0.06,0.786
										c-0.005,0.013-29.767,2.586-30.91-2.379c-0.016-0.07-0.032-0.138-0.038-0.205c-0.006-0.049-0.016-0.093-0.016-0.142
										c-0.01-0.049-0.01-0.093-0.016-0.142c0-0.024,0-0.046-0.006-0.073v-0.138c0-0.104,0.006-0.208,0.017-0.311
										c0.147-1.495,1.272-3.064,2.752-4.612c1.099-1.161,2.398-2.305,3.624-3.409c0.01-0.013,0.02-0.018,0.032-0.028
										c0.298-0.296,0.585-0.594,0.85-0.885c9.056-9.71,4.355-15.352,10.621-15.056c6.061,0.285,6.424,6.927,10.546,7.362
										c2.529,3.299,2.561,18.408,2.577,18.623c0,0.005,0.006,0.016,0,0.021C377.592,692.995,377.602,693.171,377.602,693.336z"/>
								</g>
							</g>
							<path style="fill:#011C35;" d="M532.682,663.178h-18.818c-5.304-28.305-52.058-169.059-55.773-182.086
								c-2.843,2.42-12.179,22.419-23.436,48.512c-13.288,30.793-29.238,70.077-40.326,98.981
								c-5.931,15.47-10.471,27.966-12.467,34.592h-19.755c-0.244-12.089,12.959-191.138,18.318-225.346
								c0.136-0.871,0.272-1.741,0.401-2.613c2.545-16.572,4.728-33.591,8.952-49.676c1.436-5.479,6.824-18.807,6.57-20.039
								l111.946,17.07c0.475,2.448,1.267,4.755,1.725,6.977c4.161,20.36,14.542,155.67,19.682,228.116
								C531.551,643.761,532.727,661.703,532.682,663.178z"/>
							<path style="fill:#001321;" d="M532.682,663.178h-18.818c-5.304-28.305-52.058-169.059-55.773-182.086
								c-2.843,2.42-12.179,22.419-23.436,48.512l-0.99-2.115c5.762-10.5,8.566-30.968,14.418-44.102
								c6.293-14.124,13.462-29.396,23.617-40.597c-10.895,25.862,5.304,57.294,11.976,83.002
								c3.658,14.091,9.895,27.389,13.62,41.558c3.619,13.769,6.378,27.931,11.207,41.553c2.069,5.841,2.233,13.066,8.933,13.377
								c4.088,0.193,8.024-2.623,12.265-4.613C531.551,643.761,532.727,661.703,532.682,663.178z"/>
							<path style="fill:#001321;" d="M376.871,623.961c5.575,5.287,12.258,2.38,17.46,4.625
								c-5.931,15.47-10.471,27.966-12.467,34.592h-19.755c-0.244-12.089,12.959-191.138,18.318-225.346
								c0.136-0.871,0.272-1.741,0.401-2.613l30.788-20.524c-2.21,18.172-14.153,36.792-17.811,55.315
								c-3.551,17.969-7.356,35.48-10.194,53.24c-4.529,28.344-9.561,55.852-11.026,84.79
								C372.24,614.841,372.183,619.522,376.871,623.961z"/>
						</g>
						<g>
							<g>
								<path style="fill:#C87E53;" d="M705.972,253.453c-1.119-1.986-2.655-3.495-3.87-5.409l-4.777,1.809
									c0.044,2.248,3.806,2.69,3.76,4.42c-0.012,0.426-1.07,2.05-1.334,2.387c-0.614,0.78-1.216,0.724-2.104,1.229
									c-3.002,1.707-0.586,3.103,1.547,3.668c2.279,0.604,3.424-0.61,4.817-2.382c0.759-0.967,1.962-2.045,2.534-3.083
									C707.178,254.947,706.604,254.576,705.972,253.453z"/>
								<path style="fill:#C87E53;" d="M699.874,253.18c-1.118-1.986-2.655-3.494-3.87-5.409l-4.776,1.809
									c0.045,2.248,3.805,2.69,3.758,4.419c-0.01,0.426-1.069,2.051-1.334,2.388c-0.613,0.781-1.216,0.724-2.103,1.229
									c-3.002,1.708-0.586,3.103,1.547,3.668c2.279,0.603,3.424-0.61,4.817-2.383c0.76-0.967,1.962-2.045,2.535-3.082
									C701.08,254.674,700.506,254.303,699.874,253.18z"/>
								<g>
									<path style="fill:#E8A273;" d="M713.186,246.247c-4.263,0.067-8.242,0.059-16.086-1.163
										c-1.833-0.286-4.101-4.109-17.945,1.185c-6.589,2.519-8.566,3.624-15.309,5.796c-3.4,1.096-9.791,0.219-12.955,1.841
										c-2.121,1.087-1.086,4.899-2.908,6.356l6.551,9.918c0.988,0.257,5.591-2.784,7.154-3.574
										c2.987-1.511,5.939-3.228,9.112-4.237c3.519-1.12,6.885-1.249,10.475,0.04c3.227,1.159,6.534,2.837,9.995,2.222
										c1.935-0.345,2.935-1.223,4.709-1.686c1.6-0.419,3.434-0.482,4.911-0.053c3.736,1.085,8.806,0.356,5.283-2.926
										c-2.855-2.661-10.641-0.182-10.598-3.235c0.127-9.116,15.69-4.725,22.668-7.204
										C720.248,248.815,722.177,246.104,713.186,246.247z"/>
								</g>
							</g>
							<polygon style="fill:#FFFFFF;" points="670.496,269.858 645.617,269.858 645.617,250.635 670.496,247.242 							"/>
							<path style="fill:#00437F;" d="M665.973,246.7v24.143c-6.497,1.99-13.547,3.986-20.654,5.869
								c-10.913,2.884-21.966,5.479-31.364,7.283c-16.006,3.07-30.272,4.885-46.641,5.682c-6.977,0.34-16.515,0.691-25.449,0.43
								c-0.888-0.023-1.769-0.056-2.646-0.096c-7.186-0.311-13.762-1.074-17.992-2.623l-18.85-65.425l-0.373-1.295
								c12.438,5.654,18.432,6.146,31.098,10.743c12.851,4.664,31.697,11.472,45.792,13.01c15.068,1.64,30.379,3.563,46.086,4.461
								C638.352,249.645,652.453,247.349,665.973,246.7z"/>
							<path style="fill:#011F3A;" d="M645.318,276.711c-10.913,2.884-21.966,5.479-31.364,7.283
								c-16.006,3.07-30.272,4.885-46.641,5.682c-6.977,0.34-16.515,0.691-25.449,0.43c0.384,2.912,0.74,5.908,1.068,9.001
								c-1.447-2.641-2.662-5.784-3.714-9.097c-1.9-6.005-3.274-12.563-4.501-17.664c1.493,0.379,3.015,0.741,4.558,1.091
								c20.123,4.614,44.001,7.204,64.853,6.412C616.713,279.369,631.494,278.798,645.318,276.711z"/>
						</g>
						<path style="fill:#EFE6E8;" d="M515.453,227.188c-4.084-3.765-7.879-5.235-21.127-7.201l-73.609,2.365
							c-7.46,1.815-11.603,3.632-18.75,5.914c-14.334,4.576-24.513,14.576-16.637,28.254c7.179,12.468,15.134,36.591,16.954,53.137
							c4.058,36.877-6.765,29.834-3.389,35.495c-35.619,56.822,128.908,104.864,128.908-5.937
							C527.803,276.456,519.173,230.618,515.453,227.188z"/>
						<path style="fill:#001321;" d="M524.332,358.697c-3.997,101.588-152.803,60.997-131.855,7.673
							C399.207,409.052,508.998,433.585,524.332,358.697z"/>
						<path style="fill:#001321;" d="M395.502,360.416c-1.249,1.996-2.256,3.986-3.025,5.954
							c-1.024-6.468,0.322-13.355,4.721-20.372c-1.899-3.184,0.696-2.347,2.607-7.577
							C400.093,360.02,392.618,355.581,395.502,360.416z"/>
						<path style="fill:#EA4832;" d="M475.994,231.411l-11.875-2.261c-2.631,4.102-8.165,9.324-5.808,14.289
							c1.813,3.822,8.683,5.783,12.041,6.957C473.63,246.275,478.82,236.084,475.994,231.411z"/>
						<g>
							<g>
								<path style="fill:#E8A273;" d="M476.527,191.758l-41.678-34.816c3.122,7.495,1.15,22.145,0.61,30.564
									c-0.455,7.084-4.935,25.45-7.581,31.497c6.482,7.426,20.039,9.317,29.167,11.364c9.926,2.227,19.035-2.832,26.773-9.046
									C478.85,215.535,479.702,198.225,476.527,191.758z"/>
								<path style="fill:#FFFFFF;" d="M431.631,208.626c0,0-8.715,11.98-13.458,14.697c7.463,1.472,30.642,20.868,31.93,27.484
									c7.022-8.621,10.748-19.188,22.555-19.74C466.314,228.862,437.164,213.267,431.631,208.626z"/>
								<path style="fill:#FFFFFF;" d="M480.112,209.366c0,0,11.53,8.739,16.154,11.653c-7.52,1.155-8.517,20.387-10.085,26.943
									c-6.65-8.911-11.482-16.626-23.254-17.677C469.358,228.349,479.295,221.225,480.112,209.366z"/>
							</g>
							<g>
								<g>
									<path style="fill:#E8A273;" d="M477.588,151.186c0.775-3.34,4.575-5.12,8.102-2.61c4.031,2.868,4.029,10.457,3.312,14.273
										c-0.727,3.875-2.909,10.007-7.713,8.102C476.185,168.923,477.112,153.212,477.588,151.186z"/>
									<path style="fill:#C87E53;" d="M486.217,151.64c2.381,2.057,1.645,7.116,1.483,9.789c-0.31-2.631-0.124-6.049-2.864-7.608
										c-2.823-1.602-3.889,1.427-4.469,3.62c1.139-1.805,3.086,1.571,3.119,2.665c0.051,1.769-1.348,2.737-2.904,1.839
										C477.72,160.296,477.261,143.902,486.217,151.64z"/>
								</g>
								<path style="fill:#E8A273;" d="M453.433,208.322c5.986,1.718,17.379,2.186,22.393,0.238
									c4.86-1.889,9.716-8.082,10.285-14.873c1.093-13.095,0.998-25.52-0.539-28.588c-5.919-11.796-4.143-11.277-5.559-18.034
									c-3.541-16.934-8.154-22.984-26.22-30.48c-12.298-5.107-38.359,5.107-32.035,56.172
									C425.082,199.604,444.126,205.65,453.433,208.322z"/>
								<g>
									<g>
										<path style="fill:#C87E53;" d="M439.014,172.183c-0.631-1.53-1.358-2.928-2.15-4.202
											c0.267-4.702,1.092-9.453,5.491-10.849c7.697-0.32,5.661,8.762,7.174,13.428c-4.191-0.344-7.021-0.639-10.465,1.748
											C439.047,172.266,439.031,172.222,439.014,172.183z"/>
									</g>
									<path style="fill:#FFFFFF;" d="M439.014,172.183c-0.555-1.344-1.186-2.578-1.864-3.73c0.26-1.858,0.662-3.588,1.466-5.183
										c0.784-1.486,1.986-2.771,3.872-3.243c2.625-0.572,4.219,1.47,5.169,3.87c0.794,1.993,1.294,4.367,1.873,6.661
										c-0.946-0.204-1.797-0.275-2.594-0.276c-1.994,0.019-3.69,0.338-5.48,1.05c-0.745,0.311-1.512,0.691-2.291,1.228
										C439.115,172.436,439.069,172.309,439.014,172.183z"/>
									<g>
										<path style="fill:#1E1612;" d="M447.617,165.476c-0.111,1.819-0.383,3.45-0.681,4.807c-1.994,0.019-3.69,0.338-5.48,1.05
											c-0.846-1.269-1.707-2.93-2.281-4.971c-0.289-1.028-0.481-2.068-0.559-3.091c0.784-1.486,1.986-2.771,3.872-3.243
											c2.625-0.572,4.219,1.47,5.169,3.87C447.664,164.415,447.65,164.943,447.617,165.476z"/>
									</g>
									<path style="fill:#FFFFFF;" d="M445.956,166.406c0.206,1.26,0.098,2.343-0.274,2.468c-0.372,0.129-0.935-0.727-1.231-1.976
										c-0.296-1.244-0.14-2.428,0.324-2.563C445.239,164.193,445.754,165.152,445.956,166.406z"/>
								</g>
								<g>
									<g>
										<path style="fill:#C87E53;" d="M471.327,164.928c-0.578-1.552-1.232-2.975-1.93-4.269
											c0.077-4.765,0.62-9.576,4.259-10.959c6.436-0.271,5.012,8.919,6.428,13.66c-3.524-0.379-5.902-0.7-8.713,1.699
											C471.355,165.012,471.34,164.97,471.327,164.928z"/>
									</g>
									<path style="fill:#FFFFFF;" d="M471.327,164.928c-0.508-1.362-1.074-2.621-1.679-3.789
										c0.163-1.881,0.445-3.632,1.068-5.244c0.609-1.499,1.578-2.794,3.141-3.259c2.183-0.56,3.581,1.523,4.45,3.961
										c0.727,2.025,1.217,4.432,1.775,6.764c-0.799-0.216-1.515-0.291-2.18-0.3c-1.67,0.003-3.08,0.321-4.558,1.023
										c-0.614,0.308-1.243,0.692-1.878,1.233C471.418,165.188,471.374,165.056,471.327,164.928z"/>
									<g>
										<path style="fill:#1E1612;" d="M478.322,158.197c-0.037,1.841-0.215,3.492-0.421,4.864
											c-1.67,0.003-3.08,0.321-4.558,1.023c-0.748-1.29-1.52-2.979-2.066-5.053c-0.272-1.042-0.465-2.096-0.562-3.136
											c0.609-1.499,1.578-2.794,3.141-3.259c2.183-0.56,3.581,1.523,4.45,3.961
											C478.327,157.119,478.333,157.652,478.322,158.197z"/>
									</g>
									<path style="fill:#FFFFFF;" d="M476.938,159.549c0.21,1.276,0.152,2.371-0.153,2.5c-0.309,0.126-0.807-0.745-1.095-2.014
										c-0.287-1.267-0.192-2.461,0.19-2.598C476.265,157.297,476.727,158.273,476.938,159.549z"/>
								</g>
								<path style="fill:#2A1F19;" d="M478.967,142.906c-2.586-0.333-5.194,0.243-8.122,2.571
									c-3.103,2.467-3.191,2.153-5.844,4.961l4.209,4.965l10.693-9.807L478.967,142.906z"/>
								<path style="fill:#2A1F19;" d="M450.121,152.102c-5.268-2.122-10.483-2.819-15.038-2.652
									c-1.015,0.038-1.945,0.132-2.8,0.284l-0.298,4.42c5.313,0.205,12.162,1.742,18.031,3.887L450.121,152.102z"/>
								<path style="fill:#19120F;" d="M484.769,185.514c-4.1-2.881-7.25-7.303-12.882-7.473c-5.388-0.162-10.63,2.188-14.39,6.162
									c-3.446,3.643-6.465,10.663-11.066,12.719c-4.802,2.146-10.984-2.939-13.345-6.706c-4.629-7.385-6.914-15.339-8.386-19.946
									l-4.21,4.567c2.88,5.975,3.94,26.563,8.841,31.469c6.335,6.344,10.692,9.981,19.167,12.376
									c11.092,3.133,35.88-2.105,42.652-13.726c5.191-8.908,0.718-25.332-3.972-31.466
									C486.552,176.67,486.628,182.074,484.769,185.514z"/>
								<path style="fill:#C87E53;" d="M464.638,176.526c2.516-1.608-1.379-11.905-3.416-15.706c0,0,4.049,4.88,5.45,7.241
									c1.529,2.578,3.301,6.993,3.742,9.916c0.448,2.973-11.193,1.5-13.14,1.037C459.234,177.942,462.804,177.697,464.638,176.526
									z"/>
								<path style="fill:#C87E53;" d="M457.372,194.603c0,0,0.206-0.363,0.597-0.968c0.165-0.322,0.344-0.7,0.574-1.127
									c0.235-0.449,0.465-0.958,0.843-1.495c0.089-0.137,0.179-0.276,0.273-0.417l0.035-0.053l0.017-0.028l0.005-0.006
									c-0.005,0.003,0.051-0.054,0.03-0.032l0.01-0.012l0.077-0.093l0.157-0.189c0.214-0.25,0.437-0.508,0.665-0.775
									c0.427-0.537,1.035-1.05,1.64-1.587c0.302-0.272,0.616-0.546,0.95-0.768c0.331-0.238,0.666-0.478,1.009-0.712
									c0.336-0.245,0.693-0.462,1.061-0.663c0.365-0.207,0.732-0.414,1.098-0.62c0.417-0.224,0.721-0.362,1.149-0.546
									c0.404-0.183,0.798-0.316,1.19-0.462c0.79-0.273,1.58-0.49,2.356-0.656c0.777-0.161,1.538-0.278,2.268-0.33
									c0.727-0.063,1.424-0.05,2.062,0.002c0.64,0.041,1.223,0.153,1.727,0.29c0.252,0.054,0.484,0.151,0.694,0.228
									c0.211,0.072,0.397,0.167,0.562,0.256c0.339,0.153,0.568,0.339,0.724,0.456c0.153,0.119,0.235,0.182,0.235,0.182
									s-0.101-0.027-0.289-0.076c-0.091-0.025-0.205-0.056-0.336-0.093c-0.132-0.034-0.294-0.047-0.462-0.079
									c-0.171-0.031-0.358-0.061-0.57-0.063c-0.211,0-0.425-0.044-0.668-0.027c-0.478,0.002-1.012,0.042-1.592,0.113
									c-0.289,0.041-0.59,0.079-0.9,0.149c-0.309,0.056-0.628,0.119-0.954,0.202c-0.654,0.146-1.334,0.347-2.033,0.564
									c-0.698,0.222-1.409,0.484-2.121,0.762c-0.352,0.147-0.714,0.297-1.046,0.449c-0.315,0.136-0.747,0.346-1.043,0.513
									c-0.344,0.187-0.687,0.376-1.03,0.563c-0.343,0.186-0.692,0.362-1.008,0.578c-0.639,0.419-1.332,0.781-1.886,1.215
									c-0.578,0.423-1.167,0.777-1.695,1.266c-0.27,0.224-0.533,0.441-0.787,0.651l-0.192,0.154l-0.095,0.075l-0.012,0.01
									c-0.024,0.025,0.026-0.028,0.019-0.022l-0.005,0.006l-0.019,0.02l-0.039,0.04c-0.105,0.106-0.208,0.21-0.309,0.312
									c-0.409,0.395-0.777,0.834-1.112,1.195c-0.343,0.382-0.668,0.704-0.922,0.957
									C457.71,194.362,457.372,194.603,457.372,194.603z"/>
								<g>
									<path style="fill:#2A1F19;" d="M469.835,125.992c-3.608,2.956-8.865,5.916-13.85,5.482
										c-4.208-0.367-24.111-1.708-25.303-0.546c-7.847,7.671,0.87,17.854-3.584,23.943c-2.1,2.862-2.998,16.528-2.159,19.666
										l-5.043-5.752c-2.745-5.101-4.55-13.729-6.846-19.248c-7.83-18.816-4.316-21.916,2.873-26.404
										C499.738,73.242,485.038,129.399,469.835,125.992z"/>
									<path style="fill:#19120F;" d="M477.358,136.008c-0.072,0.15-6.035-9.094-6.053-9.117
										c-3.607,2.956-10.335,5.017-15.319,4.583c-4.208-0.367-24.111-1.708-25.303-0.546c-7.847,7.671,0.87,17.854-3.584,23.943
										c-2.1,2.862-0.486,21.135,0.353,24.273l-7.022-1.066c-2.744-5.101-10.721-38.937-11.142-39.467
										c2.129,1.326,4.189,2.761,6.604,2.848c-0.99-4.958,2.306-11.784,5.697-15.27c0.251,2.065,0.162,4.267,0.677,6.372
										c2.837-4.985,8.843-8.782,14.218-10.305c4.578-1.298,11.657,0.789,16.864,0.754c4.553-0.03,9.437,0.063,13.948-1.269
										c0.807-0.241,1.545-0.497,2.254-0.788c6.005-0.349,7.076,1.282,7.946,1.89C477.94,124.636,477.301,134.666,477.358,136.008
										z"/>
								</g>
								<g>
									<path style="fill:#E8A273;" d="M418.139,168.46c-3.127-2.456-8.789-2.012-11.3,1.954
										c-2.873,4.533,2.14,11.023,5.506,13.918c3.417,2.938,10.045,7.055,14.465,2.941
										C431.503,182.909,420.032,169.949,418.139,168.46z"/>
									<path style="fill:#C87E53;" d="M408.24,173.305c-1.456,2.992,2.753,6.938,4.709,9.138
										c-1.369-2.406-3.847-5.234-1.636-7.981c2.273-2.831,5.538-0.793,7.67,0.783c-2.536-0.952-2.613,2.941-1.928,3.891
										c1.106,1.54,3.398,1.645,4.645,0.071C423.991,176.319,413.713,162.064,408.24,173.305z"/>
								</g>
							</g>
						</g>
						<path style="fill:#00437F;" d="M535.362,442.31c-5.18,2.753-38.448,9.171-38.448,3.392c0-7.351-3.019-25.908-3.732-30.871
							c-2.697-18.772-3.07-36.882-4.161-55.829c-1.142-19.874,0.413-39.59-0.497-59.589c-0.605-13.361-1.171-26.897,0.271-40.206
							c0.848-7.848,1.554-15.685,2.317-23.505c0.436-4.473,2.964-13.264,1.131-16.72l10.133,2.98l1.554,0.458
							c5.931,3.488,14.52,3.228,21.113,7.232c3.07,1.866,9.448,17.544,14.231,43.785c0.939,5.157,1.815,10.72,2.59,16.669
							c0.384,2.912,0.74,5.908,1.068,9.001C546.846,335.882,546.777,385.238,535.362,442.31z"/>
						<g>
							<path style="fill:#00437F;" d="M439.897,388.228c-0.651,14.141,0.566,27.377-2.239,41.535
								c-1.029,5.173,0.509,17.195-2.375,21.594c-2.357,3.596-24.393,4.834-45.075-1.77c-8.985-2.867-17.72-7.221-24.471-13.497
								c5.518-28.678,15.243-51.345,11.625-131.323c-0.515-11.376-1.3-23.917-2.403-37.798c-0.984-12.349-5.598-28.916,5.897-37.13
								c10.483-7.492,26.043-8.618,37.922-11.479l6.219,15.08c4.161,8.724,4.314,21.514,6.18,31.267
								c2.623,13.711,3.913,27.671,6.169,41.648C441.78,333.744,441.169,360.658,439.897,388.228z"/>
							<path style="fill:#0063AD;" d="M426.864,214.023c0,0-12.301,2.441-21.632,5.545l-0.821,8.547
								c4.342,2.271,8.814,4.442,12.813,6.56c-4.711,3.713-5.437,5.347-11.39,8.184c6.668,7.457,9.989,11.784,14.267,22.956
								c16.933,44.224,20.465,133.816,17.932,156.224C455.479,329.144,433.601,207.333,426.864,214.023z"/>
						</g>
						<path style="fill:#0063AD;" d="M512.745,222.93c-4.308-1.958-25.538-9.15-25.538-9.15c-5.04,6.019,2.105,182.052,4.639,186.78
							c-2.581-23.144,16.137-147.286,16.137-147.286s-7.794-6.782-10.058-10.86c3.959-1.439,10.297-5.35,14.254-7.611
							C513.58,230.369,512.036,227.494,512.745,222.93z"/>
						<path style="fill:#C87E53;" d="M357.622,420.814c-1.156,3.817,6.273,5.533,8.681,4.158l1.885-7.539
							C365.366,417.931,358.689,417.289,357.622,420.814z"/>
						<path style="fill:#011F3A;" d="M398.045,380.771c-0.265,24.256-4.62,46.211-7.837,68.816
							c-8.985-2.867-17.72-7.221-24.471-13.497c5.518-28.678,15.243-51.345,11.625-131.323c4.297-1.278,8.425-3.89,12.269-5.942
							c2.188,12.931,6.898,25.947,8.414,39.54C399.589,352.2,398.204,366.709,398.045,380.771z"/>
						<path style="fill:#EA4832;" d="M472.746,241.512c-0.002,0.117-0.005,0.235-0.008,0.352l-8.065,0.826
							c3.957,16.294-12.627,104.225-13.868,125.87c4.109,5.576,8.767,11.168,14.228,13.357c9.083-6.464,15.587-5.413,19.555-16.552
							C488.907,353.244,475.856,247.995,472.746,241.512z"/>
						<path style="fill:#E8A273;" d="M377.73,397.75c-2.36-3.732-11.479-6.73-15.529-9.28l-14.745,6.723
							c0.445,3.776,7.468,3.563,10.177,11.685c1.58,4.737,0.255,14.837,7.894,16.203c-1.648,0.753-4.814,0.759-5.949,2.457
							c-3.816,5.706,9.35,5.135,12.028,3.786c2.382-1.201,2.909-4.447,4.079-6.979c1.071-2.315,3.539-4.939,4.328-7.478
							C380.986,411.729,379.729,400.911,377.73,397.75z"/>
						<polygon style="fill:#FFFFFF;" points="351.636,407.182 330.133,389.754 342.004,375.108 365.601,389.952 						"/>
						<path style="fill:#00437F;" d="M338.072,336.137c-9.16,9.16-5.638,19.569,2.963,27.869c2.471,2.386,5.405,5.491,8.425,8.719
							c4.087,4.365,8.323,8.939,11.76,12.218c-3.387,7.294-9.262,12.909-15.238,18.342c-6.383-3.076-13.072-8.651-18.975-12.976
							c-11.094-8.125-28.514-21.186-33.806-34.773c-5.06-12.97,1.261-28.479,7.949-40.043c9.493-16.408,54.596-80.503,90.41-91.054
							l4.167,70.825c-2.397,1.074-4.777,2.216-7.13,3.426C369.939,308.216,352.613,321.6,338.072,336.137z"/>
						<path style="fill:#011F3A;" d="M338.072,336.137c-9.16,9.16-5.638,19.569,2.963,27.869c2.471,2.386,5.405,5.491,8.425,8.719
							c-9.686-6.717-18.936-14.667-22.844-25.789c-3.489,2.075-6.835,4.772-9.86,7.413c10.647-31.607,41.303-49.474,71.96-56.689
							l-0.119,1.029C369.939,308.216,352.613,321.6,338.072,336.137z"/>
					</g>
				</g>
				<g>
					<g>
						<g>
							<path style="fill:#AFA9A8;" d="M654.571,434.913c0,2.193-1.777,3.971-3.97,3.971H491.712c-2.195,0-3.973-1.778-3.973-3.971
								l0,0c0-2.194,1.778-3.972,3.973-3.972H650.6C652.793,430.94,654.571,432.718,654.571,434.913L654.571,434.913z"/>
							<g>
								<path style="fill:#EDE6E6;" d="M655.069,433.441c-0.446,3.007-3.17,5.443-6.081,5.443H534.586
									c-2.912,0-4.912-2.435-4.466-5.443l13.22-89.123c0.446-3.006,3.169-5.444,6.08-5.444h114.403c2.91,0,4.91,2.438,4.464,5.444
									L655.069,433.441z"/>
								<path style="fill:#B2B6B7;" d="M659.924,433.441c-0.444,3.007-3.167,5.443-6.079,5.443H539.443
									c-2.912,0-4.912-2.435-4.465-5.443l13.222-89.123c0.445-3.006,3.167-5.444,6.079-5.444h114.401
									c2.914,0,4.914,2.438,4.466,5.444L659.924,433.441z"/>
							</g>
						</g>
						<path style="fill:#FFFFFF;" d="M614.849,383.205c0,3.107-2.521,5.628-5.628,5.628l0,0c-3.108,0-5.626-2.521-5.626-5.628l0,0
							c0-3.108,2.518-5.628,5.626-5.628l0,0C612.329,377.577,614.849,380.098,614.849,383.205L614.849,383.205z"/>
					</g>
					<g>
						<g>
							<polygon style="fill:#B2B6B7;" points="376.917,439.64 377.057,450.516 377.289,468.251 380.301,698.729 383.689,698.729 
								388.205,468.251 388.552,450.516 388.765,439.64 							"/>
							<polygon style="fill:#683E32;" points="377.057,450.516 377.289,468.251 388.205,468.251 388.552,450.516 							"/>
						</g>
						<g>
							<polygon style="fill:#B2B6B7;" points="215.963,439.64 216.103,450.516 216.334,468.251 219.347,698.729 222.735,698.729 
								227.249,468.251 227.597,450.516 227.811,439.64 							"/>
							<polygon style="fill:#683E32;" points="216.103,450.516 216.334,468.251 227.249,468.251 227.597,450.516 							"/>
						</g>
						<g>
							<rect x="594.01" y="449.834" style="fill:#683E32;" width="127.103" height="246.451"/>
							<rect x="659.487" y="450.664" style="fill:#B75F41;" width="127.102" height="245.622"/>
							<rect x="593.961" y="453.922" style="fill:#683E32;" width="192.588" height="15.491"/>
						</g>
						<g>
							<path style="fill:#B75F41;" d="M802.821,447.012c0,4.771-3.26,8.639-7.285,8.639h-12.184H605.276H262.698
								c-4.024,0-7.285-3.867-7.285-8.639l0,0c0-4.771,3.261-8.64,7.285-8.64h532.838
								C799.56,438.371,802.821,442.24,802.821,447.012L802.821,447.012z"/>
							<path style="fill:#683E32;" d="M420.842,447.012c0,4.771-1.307,8.639-2.918,8.639h-213.53c-1.612,0-2.919-3.867-2.919-8.639
								l0,0c0-4.771,1.307-8.64,2.919-8.64h213.53C419.535,438.371,420.842,442.24,420.842,447.012L420.842,447.012z"/>
						</g>
					</g>
				</g>
				<g>
					<g>
						<g>
							<path style="fill:#E8A273;" d="M1003.062,349.909c0.587,10.117,0.469,19.847-0.158,29.834
								c-0.53,8.433-0.997,16.723-1.147,25.039c-0.08,4.261-0.238,8.522-0.272,12.747c-0.009,1.267,0.018,5.375-0.872,7.095
								l-11.265,1.488c-0.817-2.756-1.179-6.776-1.765-8.618c-0.369-1.159-0.735-2.324-1.102-3.494
								c-2.099-6.701-4.129-13.491-6.017-20.214c-5.458-19.456-9.389-40.338-10.212-53.046c-0.509-7.856,1.492-11.176,2.276-18.971
								c0.259-2.617,0.685-5.36,1.125-8.147c0.958-6.102,1.967-12.41,1.386-18.02l22.241,24.106
								c2.085,4.322,2.14,10.704,3.178,15.314C1001.57,339.939,1002.76,344.685,1003.062,349.909z"/>
							<path style="fill:#C87E53;" d="M986.482,414c-2.099-6.701-4.129-13.491-6.017-20.214
								c-5.458-19.456-9.389-40.338-10.212-53.046c-0.509-7.856,1.492-11.176,2.276-18.971c0.259-2.617,0.685-5.36,1.125-8.147
								l9.468,6.894c-0.483,2.724-2.244,5.379-3.086,8.139c-1.157,3.801,8.088,5.721,6.674,9.442
								C979.717,356.501,985.038,407.184,986.482,414z"/>
						</g>
						<g>
							<path style="fill:#C87E53;" d="M976.772,447.901c-2.386,1.932,1.744,4.879,3.195,5.876l4.909-2.196
								C982.647,451.1,979.359,445.807,976.772,447.901z"/>
							<path style="fill:#C87E53;" d="M979.943,446.51c-2.386,1.932,1.744,4.88,3.195,5.876l4.909-2.197
								C985.818,449.709,982.531,444.417,979.943,446.51z"/>
							<path style="fill:#E8A273;" d="M998.478,438.365c0.877-3.734,2.634-10.074,3.207-20.736l-10.119,0.199
								c0.204,3.658-4.063,7.321-6.779,9.579c-3.731,3.104-4.686,4.45-5.334,9.236c-0.317,2.329-4.538,8.663-1.334,9.105
								c4.406,0.607,4.474-7.668,7.587-7.712c-0.185,2.849-1.715,9.364-3.738,11.484c-0.748,0.783-1.153,2.24-3.293,2.177
								c-1.894-0.056-3.049-2.839-4.867-1.559c0.082,2.494,1.137,4.252,3.247,5.071c3.084,1.197,3.251,1.946,5.956,1.459
								c2.986-0.538,7.076-1.776,9.814-4.75C995.467,449.052,997.611,442.058,998.478,438.365z"/>
						</g>
					</g>
					<g>
						<g>
							<g>
								<g>
									<path style="fill:#E8A273;" d="M885.941,680.547c-0.038-0.003-0.709-7.003-0.667-7.316c0.206-1.482,0.384-2.973,0.522-4.43
										c0.393-4.243-0.656-14.995-1.402-18.051l15.583-1.771c-0.419,1.797,0.434,13.063,1.336,16.982
										c0.42,1.819,0.922,3.638,1.458,5.234c-0.219,0.018-0.454,0.04-0.705,0.058
										C900.867,671.356,885.941,680.539,885.941,680.547z"/>
									<path style="fill:#131616;" d="M929.751,692.417c-1.256,5.576-46.941,1.253-46.947,1.24
										c-0.012-0.045-0.072-0.661-0.065-0.883v-0.067c0-0.186,0.012-0.384,0.029-0.593c-0.007-0.008,0-0.019,0-0.027
										c0.017-0.241,0.053-17.205,2.838-20.908c7.98,6.641,7.631-9.589,13.94-7.352c2.29,0.812,3.324,11.009,10.324,17.013
										c8.134,6.977,17.469,0.325,19.882,7.007C930.224,689.158,929.757,692.387,929.751,692.417z"/>
								</g>
							</g>
							<g>
								<g>
									<path style="fill:#E8A273;" d="M960.31,680.547c-0.037-0.003-0.707-7.003-0.665-7.316c0.205-1.482,0.383-2.973,0.521-4.43
										c0.393-4.243-0.656-14.995-1.403-18.051l15.583-1.771c-0.418,1.797,0.436,13.063,1.337,16.982
										c0.421,1.819,0.922,3.638,1.457,5.234c-0.218,0.018-0.453,0.04-0.703,0.058
										C975.238,671.356,960.313,680.539,960.31,680.547z"/>
									<path style="fill:#131616;" d="M1004.122,692.417c-1.258,5.576-46.941,1.253-46.947,1.24
										c-0.012-0.045-0.072-0.661-0.065-0.883v-0.067c0-0.186,0.013-0.384,0.029-0.593c-0.007-0.008,0-0.019,0-0.027
										c0.018-0.241,0.054-17.205,2.838-20.908c7.98,6.641,7.632-9.589,13.941-7.352c2.29,0.812,3.323,11.009,10.323,17.013
										c8.134,6.977,17.469,0.325,19.881,7.007C1004.595,689.158,1004.129,692.387,1004.122,692.417z"/>
								</g>
							</g>
						</g>
						<path style="fill:#222B3A;" d="M939.652,391.094c-1.247,18.991-10.958,127.057-17.169,164.2
							c-1.817,10.88-4.775,26.078-8.106,42.051c-4.371,20.941-9.391,43.21-13.333,58.833l-17.95-1.078
							c-2.513-22.97-0.669-71.232,3.575-99.562c12.87-85.882-6.057-120.836,7.729-176.11c0.691-2.773,1.461-5.594,2.326-8.478
							l8.384,3.931l2.581,1.217L939.652,391.094z"/>
						<path style="fill:#222B3A;" d="M979.765,608.017c-0.69,18.258-1.648,36.628-2.672,50.206l-18.724,2.263
							c-6.784-22.125-18.089-70.142-14.471-98.574c2.006-15.756-3.938-67.932-9.335-108.895c-3.478-26.406-6.736-48.15-7.495-52.474
							l41.525-10.162c2.173,18.901,11.868,126.978,12.228,164.657C980.954,568.341,980.514,588.113,979.765,608.017z"/>
						<path style="fill:#171D26;" d="M914.377,597.345c-4.371,20.941-9.391,43.21-13.333,58.833l-17.95-1.078
							c-2.513-22.97-0.669-71.232,3.575-99.562c12.87-85.882-6.057-120.836,7.729-176.11l10.71-4.547l3.367-1.429
							c-0.271,0.877-0.536,1.758-0.786,2.646c-6.836,23.862-7.176,51.99-7.182,76.92c-0.005,22.646-0.436,45.451-2.665,67.582
							c-1.744,17.275-3.71,34.577-3.71,52.059c0,7.288-0.057,16.904,4.924,22.736C903.237,600.288,909.016,599.598,914.377,597.345z
							"/>
						<path style="fill:#171D26;" d="M979.765,608.017c-0.69,18.258-1.648,36.628-2.672,50.206l-18.724,2.263
							c-6.784-22.125-18.089-70.142-14.471-98.574c2.006-15.756-3.938-67.932-9.335-108.895
							c0.474-13.694,1.005-26.975,10.475-36.468c-5.423,14.816-1.306,35.21-0.45,50.918c1.227,22.646,3.931,45.801,6.268,68.123
							c0.845,8.08,2.275,15.151,0.617,23.257c-1.546,7.575-1.525,16.181,0.446,23.905c2.364,9.264,6.529,21.583,16.187,25.376
							C972.933,610.026,976.557,609.516,979.765,608.017z"/>
					</g>
					<g>
						<g>
							<path style="fill:#C4DAE7;" d="M1007.652,351.116c-4.798,0.714-9.637,1.131-14.476,1.326
								c-0.683,0.029-1.369,0.041-2.052,0.06c-0.242,0.006-0.479,0.008-0.717,0.015c-0.098-0.006-0.294-0.005-0.608,0
								c-1.809-0.008-3.613-0.062-5.412-0.146c-2.97-0.137-5.931-0.422-8.872-0.833c-0.472-2.403-0.873-4.912-1.204-7.496
								c-2.99-23.316-0.608-52.668-0.173-62.301l3.625-26.577l5.349-39.193c9.981,8.488,21.056,10.307,24.122,26.473
								c1.195,6.263,2.344,57.672,1.655,71.021c-0.203,3.926,0.108,12.26-0.13,21.577
								C1008.626,340.291,1008.319,345.851,1007.652,351.116z"/>
							<path style="fill:#8FB2C6;" d="M984.387,352.371c1.294,0.06,10.973-0.191,12.271-0.168
								c-3.902-13.702-5.609-27.918-3.188-42.498c2.272-13.694,3.753-29.2,4.251-43.029c0.347-9.584,2.384-28.053-1.176-36.63
								l-18.778,25.117l-3.625,26.576c-0.481,10.701-3.375,45.737,1.373,69.799C978.458,351.948,981.418,352.233,984.387,352.371z"
								/>
						</g>
						<g>
							<path style="fill:#8FB2C6;" d="M1011.056,350.723c-4.798,0.714-13.041,1.523-17.88,1.718
								c-0.683,0.029-1.369,0.041-2.052,0.06c-0.242,0.006-0.479,0.008-0.717,0.015c-0.098-0.006-0.294-0.005-0.608,0
								c-1.809-0.008-3.613-0.062-5.412-0.146c-2.97-0.137-5.931-0.422-8.872-0.833c-0.472-2.403-0.873-4.912-1.204-7.496
								l0.871-4.729c4.585,1.546,14.65-0.608,20.131-1.697c4.292-0.859,11.383-1.799,15.859-2.829
								C1011.036,340.034,1011.724,345.458,1011.056,350.723z"/>
						</g>
					</g>
					<path style="fill:#C4DAE7;" d="M973.189,393.206c-0.885,5.399-1.717,9.177-2.345,9.245c-0.489,0.005-0.99,0.002-1.499,0.004
						c-0.113-0.001-0.216-0.001-0.326,0.003c-0.315-0.006-0.637-0.003-0.963-0.004c-0.361-0.007-0.731,0-1.103-0.004
						c-18.35-0.103-48.779-1.62-74.932-11.218c0.185-4.263,0.373-8.544,0.572-12.821c2.462-52.753,3.557-97.747-8.021-148.389
						c-0.024-0.096,25.197-18.719,38.167-24.755l59.222,8.601c7.681,6.492,12.041,11.372,15.761,15.091
						C995.724,272.569,975.266,380.625,973.189,393.206z"/>
					<path style="fill:#8FB2C6;" d="M910.995,367.703c-4.927-7.926-5.472-18.633-6.181-27.707
						c-1.108-14.171,4.147-43.308,2.761-57.463c-1.718-17.488-3.247-20.179-5.831-35.724c-0.414-2.485-1.865-6.369-3.746-10.413
						h-7.981c7.891,46.154,4.794,94.462,2.574,142.014c-0.199,4.278-0.387,8.558-0.572,12.821
						c26.154,9.598,56.583,11.115,74.932,11.218c0.373,0.004,0.742-0.004,1.103,0.004c0.327,0.001,0.648-0.002,0.963,0.004
						c0.11-0.005,0.213-0.005,0.326-0.003c0.509-0.002,1.011,0.001,1.499-0.004c0.628-0.067,1.46-3.845,2.345-9.245
						C950.097,397.258,922.805,386.718,910.995,367.703z"/>
					<g>
						<path style="fill:#E8A273;" d="M975.543,222.217c-2.552,3.532-10.168,14.146-16.827,18.979
							c-2.193-3.034-4.189-5.442-5.388-5.78c-1.498-0.168-7.3,2.934-12.264,4.61c-1.478-0.119-2.907-0.133-4.176-0.003
							c-4.654-11.555-7.665-23.036-12.74-35.746c5.596,0.632,4.114,3.478,8.851-0.101c0.403-0.305,1.063-1.223,1.894-2.588
							c2.122-3.492,5.366-9.933,8.355-16.741c4.017-9.153,7.58-18.947,7.357-23.102l26.104,37.492
							C974.226,201.877,969.828,217.95,975.543,222.217z"/>
						<path style="fill:#C87E53;" d="M975.209,214.805c-4.194,27.556-37.451-12.89-31.957-29.959
							c4.013-9.151,7.578-18.948,7.353-23.103l26.105,37.493C974.226,201.874,976.224,209.396,975.209,214.805z"/>
					</g>
					<g>
						<path style="fill:#222B3A;" d="M972.778,232.898l-2.741,3.469l-1.553,1.967l-5.085,6.435l-1.145,1.446l-4.774-3.334
							l-7.084-4.953l-0.395-0.277l1.249-3.312l2.459-6.493c2.271,2.019,4.787,3.811,7.568,5.245
							c1.049-1.047,2.081-2.002,3.079-2.924L972.778,232.898z"/>
						<path style="fill:#222B3A;" d="M962.286,239.081l-4.342-0.039c0,0-12.518,104.571-16.491,133.33
							c-0.91,6.591,9.44,12.208,9.44,12.208l8.351-9.919C959.243,374.66,966.908,242.839,962.286,239.081z"/>
						<g>
							<path style="fill:#D7E8F0;" d="M961.278,233.092c-0.38-0.004-0.957,0.167-1.694,0.461c-2.163,0.858-5.669,2.767-9.188,4.376
								c-0.842,0.389-1.681,0.752-2.501,1.088c-1.63,0.665-3.199,1.191-4.562,1.442c-8.675,1.581-12.922,2.912-17.165,4.437
								c6.961-13.493-4.267-27.135-3.428-39.627l1.739-0.971l11.454-6.413c0,0,4.89,18.54,17.778,29.963
								C955.981,229.866,958.497,231.658,961.278,233.092z"/>
							<path style="fill:#D7E8F0;" d="M980.948,245.435c-2.407-1.398-7.41-2.457-12.463-7.101c-0.029-0.019-0.058-0.047-0.087-0.076
								c-2.243-2.079-4.306-3.819-5.808-4.656c-0.507-0.283-0.951-0.46-1.312-0.511c1.049-1.047,2.081-2.002,3.079-2.924
								c5.691-5.24,10.363-9.178,12.613-20.581l0.065,0.03l5.906,3.722c-0.425,3.642-0.844,6.677-1.206,9.504
								C980.871,229.662,980.338,235.287,980.948,245.435z"/>
							<path style="fill:#EEFAFF;" d="M955.918,234.167c1.643-0.255,2.755-0.482,3.667-0.615c-2.678,1.064-7.415,3.73-11.689,5.464
								c-1.63,0.665-3.199,1.191-4.562,1.442c-8.675,1.581-12.922,2.912-17.165,4.437c6.961-13.493-4.267-27.135-3.428-39.627
								l1.739-0.971c-0.734,4.862,2.26,10.423,3.767,14.936c2.063,6.178,3.204,11.433,3.931,17.646
								c3.237-0.718,6.725-2.368,10.039-2.761C946.54,233.599,951.485,234.85,955.918,234.167z"/>
							<path style="fill:#EEFAFF;" d="M980.948,245.435c-2.418-1.406-7.467-2.468-12.55-7.176c-2.243-2.079-4.306-3.819-5.808-4.656
								c0.829,0.175,1.818,0.494,3.205,1.006c4.028,1.49,7.763,3.63,11.908,4.54c0.2-5.535,1.88-11.161,4.032-16.305
								C980.871,229.662,980.338,235.287,980.948,245.435z"/>
						</g>
					</g>
					<g>
						<g>
							<path style="fill:#E8A273;" d="M895.017,354.981c-0.452,9.633-1.566,18.83-3.213,28.221
								c-1.393,7.93-2.703,15.73-3.709,23.586c-0.515,4.025-1.11,8.041-1.578,12.037c-0.138,1.199-0.531,5.089-1.593,6.63
								l-11.358,0.31c-0.531-2.688-0.478-6.528-0.871-8.328c-0.25-1.134-0.495-2.272-0.739-3.415
								c-1.402-6.546-2.726-13.171-3.915-19.717c-3.438-18.946-5.207-39.094-4.723-51.201c0.298-7.485,2.628-10.432,4.207-17.733
								c0.526-2.452,1.233-5.006,1.956-7.601c1.576-5.682,3.229-11.553,3.224-16.92l19.655,24.983
								c1.631,4.293,1.032,10.339,1.594,14.804C894.555,345.4,895.251,350.008,895.017,354.981z"/>
							<path style="fill:#C87E53;" d="M867.926,363.461c-1.1,9.969,0.148,20.782,0.706,30.845
								c0.372,6.712,2.587,13.126,3.325,19.717c-1.402-6.546-2.726-13.171-3.915-19.717c-3.438-18.946-5.207-39.094-4.723-51.201
								c0.298-7.485,2.628-10.432,4.207-17.733c0.526-2.452,1.233-5.006,1.956-7.601l8.711,7.448
								c-0.761,2.531-2.784,4.872-3.904,7.403c-1.54,3.483-2.428,7.263-3.623,10.876
								C868.515,350.036,868.659,356.781,867.926,363.461z"/>
						</g>
					</g>
					<g>
						<path style="fill:#2A1F19;" d="M1004.748,145.135l-5.539,3.688c4.732,11.093,0.839,20.963-0.973,32.17
							c3.254-5.822,8.828-10.748,10.952-18.076C1010.843,157.212,1011.567,147.236,1004.748,145.135z"/>
						<g>
							<path style="fill:#E8A273;" d="M1000.036,176.516c2.173-2.375,5.716-2.026,6.982,1.714
								c1.445,4.276-2.247,10.509-4.611,13.303c-2.396,2.836-6.917,6.834-9.375,2.98
								C990.421,190.42,998.718,177.956,1000.036,176.516z"/>
							<path style="fill:#C87E53;" d="M1005.898,180.997c0.676,2.824-2.302,6.63-3.717,8.748c1.061-2.307,2.853-5.027,1.681-7.612
								c-1.208-2.662-3.434-0.68-4.909,0.843c1.679-0.938,1.41,2.762,0.902,3.676c-0.823,1.478-2.279,1.605-2.94,0.127
								C995.701,184.062,1003.352,170.377,1005.898,180.997z"/>
						</g>
						<path style="fill:#E8A273;" d="M960.179,215.584c3.71,2.812,8.623,6.319,13.219,5.582c2.254-0.362,6.201-0.672,9.903-5.98
							c7.141-10.235,13.119-20.489,13.525-23.736c1.569-12.509,1.002-8.787,3.293-15.011c5.74-15.597,6.996-25.216-2.086-39.981
							c-6.181-10.05-30.452-16.717-44-0.995l-3.614,8.671c-3.746,11.772,2.924,19.204-3.378,29.88
							C935.594,193.412,953.593,210.592,960.179,215.584z"/>
						<g>
							<path style="fill:#C87E53;" d="M972.245,174.399c-0.185-0.009-0.366-0.017-0.545-0.031c-0.182-0.009-0.356-0.023-0.528-0.036
								c-5.246-0.432-8.401-2.095-13.116-4.884c2.573-0.712,3.402-0.329,5.6-1.082c1.056-0.366,2.957-0.1,4.413,0.133
								c1.996,0.315,3.255,0.636,3.695,2.434c0.33,1.355,0.154,1.747,0.414,3.114C972.195,174.155,972.217,174.274,972.245,174.399z
								"/>
							<path style="fill:#FFFFFF;" d="M972.245,174.399c-0.185-0.009-0.366-0.017-0.545-0.031c-0.182-0.009-0.356-0.023-0.528-0.036
								c-0.638-0.047-1.238-0.111-1.82-0.194c-2.282-0.314-4.242-0.876-6.207-1.697c-1.737-0.734-3.477-1.669-5.43-2.83l0.341-0.164
								c2.573-0.712,3.402-0.329,5.6-1.082c1.056-0.366,2.957-0.1,4.413,0.133c1.996,0.315,3.255,0.636,3.695,2.434
								c0.33,1.355,0.154,1.747,0.414,3.114C972.195,174.155,972.217,174.274,972.245,174.399z"/>
							<path style="fill:#1E1612;" d="M971.097,170.704c-0.42,1.339-1.039,2.52-1.75,3.432c-2.279-0.313-4.24-0.876-6.205-1.696
								c-0.103-1.219,0.056-2.637,0.512-4.076c0.228-0.725,0.511-1.4,0.836-2.011c1.056-0.366,2.231-0.535,3.688-0.302
								c1.994,0.314,2.781,1.687,3.222,3.485C971.322,169.918,971.22,170.309,971.097,170.704z"/>
							<path style="fill:#FFFFFF;" d="M969.455,171.934c-0.278,0.874-0.815,1.483-1.208,1.359c-0.39-0.122-0.485-0.93-0.208-1.805
								c0.273-0.874,0.813-1.484,1.204-1.36C969.636,170.249,969.73,171.059,969.455,171.934z"/>
							<path style="fill:#C87E53;" d="M972.176,174.047c-0.26-1.367-0.084-1.759-0.414-3.114c-0.44-1.798-1.699-2.119-3.695-2.434
								c-1.455-0.233-3.357-0.499-4.413-0.133c-2.198,0.753-3.027,0.37-5.6,1.082c3.804-1.055,6.244-6.057,10.757-5.401
								C973.816,164.782,971.604,170.323,972.176,174.047z"/>
						</g>
						<g>
							<path style="fill:#C87E53;" d="M997.686,182.391c-0.145-0.006-0.281-0.013-0.42-0.026c-0.139-0.006-0.273-0.018-0.406-0.029
								c-4.041-0.374-6.456-2.003-10.06-4.738c1.992-0.739,2.626-0.366,4.329-1.141c0.819-0.379,2.281-0.134,3.401,0.084
								c1.536,0.293,2.503,0.598,2.822,2.392c0.24,1.35,0.1,1.743,0.287,3.107C997.652,182.146,997.667,182.267,997.686,182.391z"/>
							<path style="fill:#FFFFFF;" d="M997.686,182.391c-0.145-0.006-0.281-0.013-0.42-0.026c-0.139-0.006-0.273-0.018-0.406-0.029
								c-0.49-0.04-0.953-0.096-1.401-0.175c-1.759-0.288-3.263-0.828-4.769-1.628c-1.33-0.714-2.662-1.629-4.154-2.768l0.265-0.167
								c1.992-0.739,2.626-0.366,4.329-1.141c0.819-0.379,2.281-0.134,3.401,0.084c1.536,0.293,2.503,0.598,2.822,2.392
								c0.24,1.35,0.1,1.743,0.287,3.107C997.652,182.146,997.667,182.267,997.686,182.391z"/>
							<path style="fill:#1E1612;" d="M996.841,178.711c-0.338,1.343-0.827,2.529-1.386,3.449c-1.755-0.289-3.26-0.83-4.766-1.627
								c-0.066-1.218,0.073-2.635,0.44-4.079c0.184-0.727,0.409-1.406,0.666-2.02c0.818-0.375,1.728-0.557,2.847-0.342
								c1.535,0.292,2.127,1.655,2.445,3.448C997.024,177.923,996.942,178.315,996.841,178.711z"/>
							<path style="fill:#FFFFFF;" d="M995.563,179.957c-0.224,0.876-0.645,1.491-0.946,1.372c-0.3-0.118-0.362-0.925-0.141-1.802
								c0.22-0.876,0.644-1.493,0.945-1.372C995.72,178.271,995.784,179.079,995.563,179.957z"/>
							<path style="fill:#C87E53;" d="M997.639,182.039c-0.188-1.364-0.048-1.757-0.287-3.107c-0.318-1.794-1.285-2.1-2.822-2.392
								c-1.12-0.218-2.582-0.463-3.401-0.084c-1.703,0.775-2.338,0.402-4.329,1.141c2.943-1.095,4.88-6.123,8.353-5.515
								C999.005,172.762,997.237,178.323,997.639,182.039z"/>
						</g>
						<path style="fill:#2A1F19;" d="M995.361,162.111c2.464,1.698,2.172,1.807,4.304,3.897c3.356,3.291,2.28,6.494,0.262,10.206
							c0.085-3.766-3.515-7.814-9.324-10.233L995.361,162.111z"/>
						<path style="fill:#2A1F19;" d="M976.927,157.829c-4.637-1.331-9.075-1.313-12.87-0.557c-0.995,0.198-1.879,0.454-2.675,0.776
							c-0.024,1.392-0.021,2.784,0.005,4.176c4.528-0.623,10.724-0.06,16.097,1.272L976.927,157.829z"/>
						<g>
							<path style="fill:#C87E53;" d="M984.116,178.338c0.024,0.074,0.042,0.156,0.059,0.237c0.035-0.073,0.066-0.151,0.103-0.219
								L984.116,178.338z"/>
							<path style="fill:#C87E53;" d="M984.175,178.575c-2.092,6.921-4.237,11.943-4.237,11.943s-3.853-0.861-7.096-0.557
								c1.607,1.283,7.214,4.528,8.828,2.861C982.808,191.647,984.578,180.365,984.175,178.575z"/>
						</g>
						<path style="fill:#C87E53;" d="M963.877,197.086c0,0,0.323-0.053,0.885-0.111c0.567-0.046,1.381-0.09,2.349-0.06
							c0.485,0.014,1.011,0.025,1.562,0.082c0.553,0.043,1.136,0.096,1.734,0.177c1.2,0.16,2.471,0.391,3.726,0.701
							c0.628,0.155,1.25,0.325,1.859,0.518c0.612,0.173,1.202,0.405,1.773,0.607c0.567,0.228,1.11,0.454,1.615,0.698
							c0.506,0.241,0.981,0.473,1.399,0.734c0.428,0.241,0.809,0.477,1.129,0.72c0.325,0.232,0.607,0.429,0.817,0.63
							c0.427,0.382,0.653,0.612,0.653,0.612s-0.313-0.11-0.828-0.324c-0.249-0.118-0.585-0.205-0.941-0.344
							c-0.357-0.139-0.777-0.257-1.223-0.406c-0.444-0.154-0.944-0.276-1.454-0.441c-0.513-0.157-1.072-0.284-1.631-0.453
							c-0.57-0.146-1.157-0.3-1.755-0.454c-0.599-0.15-1.205-0.312-1.817-0.454c-0.606-0.163-1.223-0.291-1.823-0.447
							c-0.603-0.145-1.196-0.287-1.771-0.425c-1.152-0.284-2.23-0.547-3.152-0.773c-0.463-0.113-0.888-0.215-1.266-0.316
							c-0.376-0.088-0.704-0.176-0.978-0.248C964.192,197.178,963.877,197.086,963.877,197.086z"/>
						<path style="fill:#2A1F19;" d="M1005.107,150.506c-2.993,5.18-24.732,10.5-39.219-7.23c-2.398-2.938-4.189-5.603-5.038-6.733
							c-1.122,2.127,1.056,10.323,0.343,11.695c-2.237,4.302-4.592,6.824-5.242,8.108c-1.587,3.13-4.488,14.969-6.356,21.886
							c-1.062-0.204-5.086-2.827-5.442-4.452c-0.336-1.538-2.738-31.701,1.861-35.982c-1.817-0.32-3.047,1.44-4.187,2.586
							c0.759-3.344,3.453-4.83,6.095-6.012c-1.578-0.48-3.076-1.404-4.745-1.377c1.707-2.037,4.165-1.986,6.033-3.246
							c0.718-0.485,1.376-1.089,2.017-1.72c1.041-1.02,2.053-2.114,3.229-2.946c4.034-2.847,8.911-3.282,13.705-3.502
							c7.389-0.345,14.415,0.483,21.137,3.33c6.328,2.679,13.326,8.943,15.878,15.311c0.333,0.825,0.602,1.755,0.783,2.729
							C1006.441,145.529,1006.309,148.418,1005.107,150.506z"/>
						<path style="fill:#140E0C;" d="M1005.107,150.506c-2.993,5.18-24.732,10.5-39.219-7.23c-2.398-2.938-4.189-5.603-5.038-6.733
							c-1.122,2.127,1.056,10.323,0.343,11.695c-2.237,4.302-4.592,6.824-5.242,8.108c-1.587,3.13-4.488,14.969-6.356,21.886
							c-1.062-0.204-5.086-2.827-5.442-4.452c-0.336-1.538-2.738-31.701,1.861-35.982c-1.817-0.32-3.047,1.44-4.187,2.586
							c0.759-3.344,3.453-4.83,6.095-6.012c-1.578-0.48-3.076-1.404-4.745-1.377c1.707-2.037,4.165-1.986,6.033-3.246
							c0.718-0.485,1.376-1.089,2.017-1.72c-0.221,1.772,0.024,3.637,0.874,5.526c1.664-4.053,5.775-6.993,9.522-9.001
							c-5.014,9.191,14.987,19.291,20.86,22.562c8.437,4.698,17.171,1.91,23.475-4.165
							C1006.441,145.529,1006.309,148.418,1005.107,150.506z"/>
						<g>
							<path style="fill:#E8A273;" d="M948.349,165.504c-1.007-3.506-5.213-5.84-8.912-3.777
								c-4.227,2.358-3.855,10.076-2.888,14.057c0.978,4.041,3.646,10.577,8.76,9.304
								C950.741,183.736,948.96,167.629,948.349,165.504z"/>
							<path style="fill:#C87E53;" d="M939.016,164.77c-2.479,1.761-1.433,7.009-1.124,9.747c0.205-2.628-0.164-6.131,2.731-7.335
								c2.978-1.243,4.284,1.989,5.021,4.297c-1.322-1.99-3.27,1.172-3.25,2.276c0.032,1.794,1.594,2.97,3.24,2.271
								C948.651,174.748,948.344,158.14,939.016,164.77z"/>
						</g>
					</g>
					<g>
						<path style="fill:#C4DAE7;" d="M916.975,208.242l-12.439,65.04c-0.79,8.901-2.162,36.005-7.933,57.14
							c-0.997,3.653-2.13,7.13-3.409,10.303c-0.153,0.021-0.307,0.039-0.46,0.061c-4.941,0.588-9.93,0.825-14.908,0.718
							c-1.219-0.023-2.436-0.087-3.651-0.164c-0.602-0.039-1.204-0.089-1.808-0.142c-0.075-0.008-0.143-0.013-0.203-0.018
							c-0.08-0.008-0.169-0.02-0.278-0.032c-2.293-0.277-4.564-0.7-6.808-1.256c-0.636-0.159-1.263-0.342-1.887-0.536
							c-0.357-4.656-0.217-9.766,0.165-14.789c0.833-11.027,2.813-21.648,3.184-26.162c1.017-12.427,6.508-53.171,8.468-58.822
							C880.053,225.003,903.162,212.898,916.975,208.242z"/>
						<path style="fill:#8FB2C6;" d="M896.604,330.423c-0.997,3.653,1.995,4.264,0.716,7.437c-0.153,0.022,2.362,2.685-1.062,4.25
							c-18.594,8.499-38.119-3.623-35.592-3.188c-0.357-4.656,0.151-11.445,0.531-16.468
							C871.097,327.308,886.046,331.996,896.604,330.423z"/>
					</g>
					<g>
						<path style="fill:#C87E53;" d="M886.417,455.266c1.303,2.957-3.981,3.726-5.819,3.961l-3.535-4.419
							C879.38,455.431,885.003,452.062,886.417,455.266z"/>
						<path style="fill:#C87E53;" d="M884.118,452.439c1.302,2.956-3.981,3.726-5.82,3.961l-3.536-4.419
							C877.082,452.603,882.705,449.234,884.118,452.439z"/>
						<path style="fill:#E8A273;" d="M870.698,435.895c0.977-3.917,2.386-10.694,6.626-24.885l9.372,5.057
							c0.177,7.32,0.848,9.565,2.302,12.986c1.996,4.7,2.027,9.599,0.33,14.388c-0.826,2.332,0.075,10.289-3.135,9.161
							c-4.415-1.553-0.496-9.329-3.387-10.868c-1.197,2.754-2.904,9.587-2.031,12.543c0.322,1.093,0,2.651,2.033,3.623
							c1.798,0.859,4.218-1.189,5.303,0.883c-1.277,2.295-3.111,3.432-5.48,3.183c-3.463-0.365-3.978,0.255-6.274-1.503
							c-2.535-1.941-5.765-5.068-6.894-9.169C868.371,447.344,869.732,439.768,870.698,435.895z"/>
					</g>
				</g>
			</g>
		</g>
	</g>
	<g>
		<path style="fill:#FFFFFF;" d="M636.416,115.954c0,7.74,2.244,14.954,6.114,21.035c0.379,0.602,0.779,1.191,1.192,1.766
			c4.796,6.695,11.653,11.82,19.646,14.443c0.856,0.287,1.718,0.54,2.594,0.757c3.086,0.785,6.318,1.198,9.648,1.198
			c2.349,0,4.656-0.21,6.892-0.602c4.579-0.814,8.884-2.419,12.761-4.677c9.192-8.407,14.969-20.501,14.969-33.921
			c0-13.406-5.763-25.494-14.948-33.907c-3.877-2.258-8.181-3.864-12.76-4.684c-2.243-0.393-4.557-0.603-6.913-0.603
			c-3.646,0-7.173,0.498-10.524,1.431c-0.877,0.245-1.747,0.519-2.602,0.826c-4.676,1.656-8.939,4.18-12.606,7.377
			c-0.035,0.021-0.063,0.049-0.091,0.077c-2.517,2.203-4.747,4.726-6.626,7.495c-0.35,0.512-0.68,1.024-1.003,1.549
			C638.52,101.468,636.416,108.465,636.416,115.954z"/>
		<g>
			<g>
				<path style="fill:#56504A;" d="M664.587,115.671c0,2.265,1.835,4.101,4.099,4.101c2.264,0,4.099-1.836,4.099-4.101
					c0-2.263-1.835-4.098-4.099-4.098C666.422,111.573,664.587,113.408,664.587,115.671z"/>
				<polygon style="fill:#56504A;" points="670.115,113.937 649.378,85.721 666.281,116.645 				"/>
				<polygon style="fill:#56504A;" points="666.77,115.822 645.2,134.971 669.281,118.762 				"/>
			</g>
			<g>
				<g>
					<path style="fill:#56504A;" d="M618.222,115.954c0,25.368,20.634,46.001,46.001,46.001c11.948,0,22.849-4.58,31.039-12.081
						c9.192-8.407,14.969-20.501,14.969-33.921c0-13.406-5.763-25.494-14.948-33.907c-8.196-7.509-19.098-12.095-31.06-12.095
						C638.857,69.952,618.222,90.586,618.222,115.954z M621.511,115.954c0-23.552,19.162-42.714,42.713-42.714
						c6.542,0,12.746,1.48,18.299,4.123c14.422,6.864,24.413,21.58,24.413,38.59c0,17.017-10.005,31.741-24.434,38.597
						c-5.545,2.642-11.744,4.116-18.278,4.116C640.673,158.667,621.511,139.505,621.511,115.954z"/>
				</g>
				<g>
					<path style="fill:#56504A;" d="M662.488,84.812c0,0.718,0.581,1.299,1.298,1.299l0,0c0.717,0,1.298-0.581,1.298-1.299v-7.498
						c0-0.717-0.581-1.299-1.298-1.299l0,0c-0.717,0-1.298,0.581-1.298,1.299V84.812z"/>
					<path style="fill:#56504A;" d="M685.018,92.705c-0.507,0.506-0.507,1.329,0.001,1.835l0,0c0.506,0.507,1.328,0.507,1.834,0
						l5.303-5.302c0.507-0.507,0.507-1.329,0-1.836l0,0c-0.507-0.507-1.329-0.507-1.836,0L685.018,92.705z"/>
					<path style="fill:#56504A;" d="M695.368,114.216c-0.717,0-1.298,0.582-1.298,1.299l0,0c0,0.717,0.582,1.297,1.298,1.297h7.498
						c0.717,0,1.299-0.581,1.299-1.298l0,0c0-0.717-0.581-1.299-1.298-1.299L695.368,114.216z"/>
					<path style="fill:#56504A;" d="M687.476,136.747c-0.508-0.508-1.329-0.507-1.836,0l0,0c-0.507,0.507-0.506,1.329,0,1.835
						l5.303,5.303c0.506,0.506,1.329,0.506,1.836,0l0,0c0.506-0.506,0.506-1.329,0-1.836L687.476,136.747z"/>
					<path style="fill:#56504A;" d="M665.964,147.097c-0.001-0.717-0.582-1.298-1.299-1.298l0,0c-0.717,0-1.297,0.582-1.297,1.298
						l0.001,7.499c-0.001,0.716,0.581,1.298,1.298,1.298l0,0c0.715,0.001,1.297-0.581,1.299-1.298L665.964,147.097z"/>
					<path style="fill:#56504A;" d="M643.434,139.204c0.507-0.506,0.505-1.328-0.001-1.835l0,0c-0.507-0.506-1.329-0.506-1.835,0
						l-5.302,5.303c-0.507,0.506-0.507,1.329,0,1.836l0,0c0.505,0.506,1.328,0.506,1.836,0L643.434,139.204z"/>
					<path style="fill:#56504A;" d="M633.083,117.693c0.718-0.001,1.297-0.582,1.297-1.299l0,0c0-0.717-0.581-1.297-1.297-1.298
						l-7.498,0.001c-0.718-0.001-1.3,0.581-1.3,1.298l0,0c0,0.715,0.581,1.297,1.3,1.298H633.083z"/>
					<path style="fill:#56504A;" d="M640.976,95.163c0.507,0.507,1.329,0.505,1.835-0.001l0,0c0.507-0.507,0.507-1.329,0-1.835
						l-5.302-5.301c-0.506-0.508-1.329-0.508-1.838-0.001l0,0c-0.505,0.506-0.505,1.328,0.002,1.835L640.976,95.163z"/>
				</g>
			</g>
		</g>
	</g>
</g>
</svg>
